# xmcd
#
# Track frame offsets:
# 150
# 21450
# 39070
# 55707
# 72657
# 85522
# 103689
# 119513
# 135513
# 149427
# 169283
# 188004
# 205235
# 223469
# 240270
#
# Disc length: 3428 seconds
#
#
# Revision: 0
# Processed by: cddbd v1.5.1PL0 Copyright (c) Steve Scherf et al.
# Submitted via: FreeRIP 2.70 
#
DISCID=d90d620f
DTITLE=Bruno and Marrone - Inevitável
DYEAR=2003
DGENRE=Country
TTITLE0=Será
TTITLE1=Vai Dar Namoro
TTITLE2=Deixa
TTITLE3=É Você Que Eu Amo
TTITLE4=Pra Lá Que Eu Vou
TTITLE5=Sonhos Perdidos
TTITLE6=Trânsito Parado
TTITLE7=Doce Desejo
TTITLE8=Apaziguar
TTITLE9=Se Não Tivesse Ido
TTITLE10=Você Não Me Ensinou A Te Esquecer
TTITLE11=Inevitável
TTITLE12=Coração de Pedra
TTITLE13=Foi Engano
TTITLE14=Ligação Urbana (Ao Vivo)
EXTD=YEAR: 2003 ID3G: 2
EXTT0=
EXTT1=
EXTT2=
EXTT3=
EXTT4=
EXTT5=
EXTT6=
EXTT7=
EXTT8=
EXTT9=
EXTT10=
EXTT11=
EXTT12=
EXTT13=
EXTT14=
PLAYORDER=
